<?xml version="1.0" encoding="iso-8859-1"?>
<!-- Generator: Adobe Illustrator 19.0.0, SVG Export Plug-In . SVG Version: 6.00 Build 0)  -->
<svg version="1.1" id="Capa_1" xmlns="http://www.w3.org/2000/svg" xmlns:xlink="http://www.w3.org/1999/xlink" x="0px" y="0px"
	 viewBox="0 0 511.999 511.999" style="enable-background:new 0 0 511.999 511.999;" xml:space="preserve">
<path style="fill:#F4900C;" d="M42.664,276.141c0-129.597,105.063-234.675,234.66-234.675
	c129.625,0,234.675,105.078,234.675,234.675c0,129.612-105.049,234.675-234.675,234.675
	C147.727,510.816,42.664,405.753,42.664,276.141"/>
<path style="fill:#662113;" d="M162.336,106.683c-3.797-3.797-11.335-2.802-19.272,1.707C96.129,69.534,19.995,56.449,16.553,55.88
	C8.787,54.6,1.492,59.819,0.197,67.557s3.925,15.076,11.676,16.37c0.754,0.142,70.161,12.146,111.236,44.944
	c-3.911,7.467-4.608,14.436-0.996,18.035c5.547,5.561,19.058,1.052,30.167-10.055C163.389,125.743,167.896,112.23,162.336,106.683"
	/>
<path style="fill:#5C913B;" d="M298.68,13.014c0,0-44.176,61.414-99.858,74.997c-42.384,10.34-98.677,11.335-104.295-1.735
	C88.924,73.204,116.885,30.28,165.2,9.572S298.68,13.014,298.68,13.014"/>
<g>
</g>
<g>
</g>
<g>
</g>
<g>
</g>
<g>
</g>
<g>
</g>
<g>
</g>
<g>
</g>
<g>
</g>
<g>
</g>
<g>
</g>
<g>
</g>
<g>
</g>
<g>
</g>
<g>
</g>
</svg>
