<?xml version="1.0" encoding="iso-8859-1"?>
<!-- Generator: Adobe Illustrator 19.0.0, SVG Export Plug-In . SVG Version: 6.00 Build 0)  -->
<svg version="1.1" id="Layer_1" xmlns="http://www.w3.org/2000/svg" xmlns:xlink="http://www.w3.org/1999/xlink" x="0px" y="0px"
	 viewBox="0 0 512 512" style="enable-background:new 0 0 512 512;" xml:space="preserve">
<path style="fill:#F44336;" d="M306.374,67.2c37.2-4,77.6-7.2,120,12c92.4,42.8,116,166,21.2,306.8c-73.2,108.4-145.2,122-191.2,122
	s-118-13.2-191.2-122c-94.8-140.8-71.6-264.4,21.2-306.8c40.8-18.8,79.6-16.4,115.6-12.4l0,0c18.8,2,37.2,4.4,54,4.4
	C271.974,71.2,288.774,69.2,306.374,67.2z"/>
<path style="fill:#7CB342;" d="M275.974,32.8c12.4-14,24.4-21.2,31.6-17.2c9.6,4.8,8.4,26-1.2,51.2l-104-0.4l0,0
	c-9.6-24.8-10.4-46-1.2-50.8c8-4.4,21.6,4.4,34.8,20.8c4.4-19.6,12-32.8,20.8-32.8C264.374,4,271.974,15.6,275.974,32.8z"/>
<path d="M256.374,512c-74.8,0-138.4-40.4-194.4-123.6c-53.2-79.2-72.8-157.6-55.2-221.2c11.6-42,38.4-73.6,77.6-91.6
	c41.6-19.2,80.8-16.8,117.6-12.8h0.4c3.6,0.4,7.2,0.8,10.4,1.2c15.2,1.6,29.6,3.2,43.2,3.2c14,0,28.4-1.6,44-3.6l5.6-0.8
	c40.4-4.4,80-6.8,122,12.4c39.2,18,66,49.6,77.6,91.6c17.6,63.6-1.6,142-55.2,221.2C394.774,471.6,331.174,512,256.374,512z
	 M160.774,68c-23.6,0-47.6,3.6-72.4,14.8c-36.8,17.2-62.4,46.8-73.2,86.4c-17.2,61.2,2,137.6,54,214.8c80.8,120,161.2,120,187.6,120
	s106.8,0,187.6-120c52-77.2,71.2-153.2,54-214.8c-11.2-39.6-36.4-69.2-73.2-86.4c-40-18.4-78.8-16-118-11.6l-5.6,0.8
	c-15.6,1.6-30.4,3.6-44.8,3.6c-14,0-28.8-1.6-44-3.2c-3.2-0.4-6.8-0.8-10.4-1.2h-0.4C188.374,69.2,174.774,68,160.774,68z"/>
<path d="M306.374,71.2c-0.4,0-0.8,0-1.6-0.4c-2-0.8-3.2-3.2-2.4-5.2c10-26,9.2-43.2,3.2-46.4c-4.4-2.4-14.4,2-26.8,16.4
	c-0.8,1.2-2.4,1.6-4,1.2s-2.4-1.6-2.8-2.8c-4.4-18-11.2-26-16-26c-5.2,0-12.4,9.2-16.8,29.6c-0.4,1.6-1.6,2.8-2.8,3.2
	c-1.6,0.4-3.2,0-4-1.2c-14-17.2-25.2-22.4-30-20c-6,3.2-6.8,20.4,3.2,46c0.8,2-0.4,4.4-2.4,5.2c-2,0.8-4.4-0.4-5.2-2.4
	c-8.4-22.4-12.8-48.8,0.8-56c8.8-4.8,21.2,1.2,34.8,16c5.2-18,13.2-28.4,22.8-28.4c8.8,0,16.4,9.2,21.6,25.2
	c12.4-12.4,23.6-17.2,31.6-12.8c13.6,7.2,9.2,33.6,0.4,56.4C309.574,70,307.974,71.2,306.374,71.2z"/>
<path d="M183.574,466.8c-0.8,0-1.2,0-2-0.4c-30.8-16-60.8-43.6-88.4-82.4c-2.4-3.6-5.2-7.2-8-11.2c-1.2-2-0.8-4.4,1.2-5.6
	s4.4-0.8,5.6,1.2c2.4,4,5.2,7.6,7.6,11.2c26.8,37.6,56,64.4,85.6,80c2,1.2,2.8,3.6,1.6,5.2C186.374,466,184.774,466.8,183.574,466.8
	z"/>
<path d="M463.574,300.8c-0.4,0-0.8,0-1.6-0.4c-2-0.8-3.2-3.2-2.4-5.2c14-35.6,19.2-68.4,15.6-98.4c-0.4-2,1.2-4,3.6-4.4
	s4,1.2,4.4,3.6c3.6,31.2-1.6,65.6-16,102C466.374,300,465.174,300.8,463.574,300.8z"/>
<path d="M462.374,150.4c-1.2,0-2.8-0.8-3.6-2c-10.8-17.6-26.4-31.2-46-40.4c-2-0.8-2.8-3.2-2-5.2s3.2-2.8,5.2-2
	c21.2,10,38,24.4,49.6,43.6c1.2,2,0.4,4.4-1.2,5.6C463.974,150.4,463.174,150.4,462.374,150.4z"/>
<g>
</g>
<g>
</g>
<g>
</g>
<g>
</g>
<g>
</g>
<g>
</g>
<g>
</g>
<g>
</g>
<g>
</g>
<g>
</g>
<g>
</g>
<g>
</g>
<g>
</g>
<g>
</g>
<g>
</g>
</svg>
